<mxfile host="app.diagrams.net" agent="Mozilla/5.0 (Windows NT 10.0; Win64; x64) AppleWebKit/537.36 (KHTML, like Gecko) Chrome/132.0.0.0 Safari/537.36 Edg/132.0.0.0" version="26.0.16">
  <diagram name="Page-1" id="HlDreZ8ZAdr61VZORXJC">
    <mxGraphModel dx="1036" dy="1553" grid="1" gridSize="10" guides="1" tooltips="1" connect="1" arrows="1" fold="1" page="1" pageScale="1" pageWidth="850" pageHeight="1100" math="0" shadow="0">
      <root>
        <mxCell id="0" />
        <mxCell id="1" parent="0" />
        <mxCell id="_grJbtcx7UaRWojQZP2D-1" value="" style="whiteSpace=wrap;html=1;aspect=fixed;" vertex="1" parent="1">
          <mxGeometry x="160" y="80" width="320" height="320" as="geometry" />
        </mxCell>
        <mxCell id="_grJbtcx7UaRWojQZP2D-2" value="Zoom" style="rounded=0;whiteSpace=wrap;html=1;" vertex="1" parent="1">
          <mxGeometry x="480" y="80" width="80" height="10" as="geometry" />
        </mxCell>
        <mxCell id="_grJbtcx7UaRWojQZP2D-6" value="Colorbar" style="rounded=0;whiteSpace=wrap;html=1;" vertex="1" parent="1">
          <mxGeometry x="480" y="160" width="80" height="230" as="geometry" />
        </mxCell>
        <mxCell id="_grJbtcx7UaRWojQZP2D-8" value="Unzoom" style="rounded=0;whiteSpace=wrap;html=1;" vertex="1" parent="1">
          <mxGeometry x="480" y="90" width="80" height="10" as="geometry" />
        </mxCell>
        <mxCell id="_grJbtcx7UaRWojQZP2D-9" value="VOIs" style="rounded=0;whiteSpace=wrap;html=1;" vertex="1" parent="1">
          <mxGeometry x="480" y="100" width="80" height="10" as="geometry" />
        </mxCell>
        <mxCell id="_grJbtcx7UaRWojQZP2D-10" value="Track" style="rounded=0;whiteSpace=wrap;html=1;" vertex="1" parent="1">
          <mxGeometry x="480" y="110" width="80" height="10" as="geometry" />
        </mxCell>
        <mxCell id="_grJbtcx7UaRWojQZP2D-17" style="edgeStyle=orthogonalEdgeStyle;rounded=0;orthogonalLoop=1;jettySize=auto;html=1;exitX=0.5;exitY=0;exitDx=0;exitDy=0;entryX=0.25;entryY=0;entryDx=0;entryDy=0;" edge="1" parent="1" source="_grJbtcx7UaRWojQZP2D-11" target="_grJbtcx7UaRWojQZP2D-12">
          <mxGeometry relative="1" as="geometry" />
        </mxCell>
        <mxCell id="_grJbtcx7UaRWojQZP2D-11" value="Auto VOI" style="rounded=0;whiteSpace=wrap;html=1;" vertex="1" parent="1">
          <mxGeometry x="480" y="120" width="80" height="10" as="geometry" />
        </mxCell>
        <mxCell id="_grJbtcx7UaRWojQZP2D-12" value="2D Ruler" style="rounded=0;whiteSpace=wrap;html=1;" vertex="1" parent="1">
          <mxGeometry x="480" y="130" width="80" height="10" as="geometry" />
        </mxCell>
        <mxCell id="_grJbtcx7UaRWojQZP2D-13" value="0.0" style="rounded=0;whiteSpace=wrap;html=1;" vertex="1" parent="1">
          <mxGeometry x="480" y="140" width="80" height="10" as="geometry" />
        </mxCell>
        <mxCell id="_grJbtcx7UaRWojQZP2D-14" value="4.3" style="rounded=0;whiteSpace=wrap;html=1;" vertex="1" parent="1">
          <mxGeometry x="480" y="150" width="80" height="10" as="geometry" />
        </mxCell>
        <mxCell id="_grJbtcx7UaRWojQZP2D-15" value="Slower" style="rounded=0;whiteSpace=wrap;html=1;" vertex="1" parent="1">
          <mxGeometry x="480" y="410" width="80" height="10" as="geometry" />
        </mxCell>
        <mxCell id="_grJbtcx7UaRWojQZP2D-16" value="Faster" style="rounded=0;whiteSpace=wrap;html=1;" vertex="1" parent="1">
          <mxGeometry x="480" y="400" width="80" height="10" as="geometry" />
        </mxCell>
        <mxCell id="_grJbtcx7UaRWojQZP2D-20" value="Start" style="rounded=0;whiteSpace=wrap;html=1;" vertex="1" parent="1">
          <mxGeometry x="480" y="390" width="80" height="10" as="geometry" />
        </mxCell>
        <mxCell id="_grJbtcx7UaRWojQZP2D-21" value="Rotation" style="rounded=0;whiteSpace=wrap;html=1;" vertex="1" parent="1">
          <mxGeometry x="160" y="400" width="280" height="20" as="geometry" />
        </mxCell>
        <mxCell id="_grJbtcx7UaRWojQZP2D-22" value="" style="rounded=0;whiteSpace=wrap;html=1;" vertex="1" parent="1">
          <mxGeometry x="440" y="400" width="20" height="10" as="geometry" />
        </mxCell>
        <mxCell id="_grJbtcx7UaRWojQZP2D-23" value="" style="rounded=0;whiteSpace=wrap;html=1;" vertex="1" parent="1">
          <mxGeometry x="440" y="410" width="20" height="10" as="geometry" />
        </mxCell>
        <mxCell id="_grJbtcx7UaRWojQZP2D-24" value="" style="rounded=0;whiteSpace=wrap;html=1;" vertex="1" parent="1">
          <mxGeometry x="460" y="400" width="20" height="10" as="geometry" />
        </mxCell>
        <mxCell id="_grJbtcx7UaRWojQZP2D-25" value="" style="rounded=0;whiteSpace=wrap;html=1;" vertex="1" parent="1">
          <mxGeometry x="460" y="410" width="20" height="10" as="geometry" />
        </mxCell>
        <mxCell id="_grJbtcx7UaRWojQZP2D-26" value="New surface" style="whiteSpace=wrap;html=1;aspect=fixed;fillColor=#dae8fc;strokeColor=#6c8ebf;" vertex="1" parent="1">
          <mxGeometry x="620" y="80" width="320" height="320" as="geometry" />
        </mxCell>
        <mxCell id="_grJbtcx7UaRWojQZP2D-27" value="Zoom" style="rounded=0;whiteSpace=wrap;html=1;" vertex="1" parent="1">
          <mxGeometry x="940" y="80" width="80" height="10" as="geometry" />
        </mxCell>
        <mxCell id="_grJbtcx7UaRWojQZP2D-28" value="Colorbar" style="rounded=0;whiteSpace=wrap;html=1;fillColor=#f8cecc;strokeColor=#b85450;" vertex="1" parent="1">
          <mxGeometry x="940" y="170" width="80" height="220" as="geometry" />
        </mxCell>
        <mxCell id="_grJbtcx7UaRWojQZP2D-29" value="Unzoom" style="rounded=0;whiteSpace=wrap;html=1;" vertex="1" parent="1">
          <mxGeometry x="940" y="90" width="80" height="10" as="geometry" />
        </mxCell>
        <mxCell id="_grJbtcx7UaRWojQZP2D-30" value="VOIs" style="rounded=0;whiteSpace=wrap;html=1;fillColor=#f8cecc;strokeColor=#b85450;" vertex="1" parent="1">
          <mxGeometry x="940" y="100" width="80" height="10" as="geometry" />
        </mxCell>
        <mxCell id="_grJbtcx7UaRWojQZP2D-31" value="Track" style="rounded=0;whiteSpace=wrap;html=1;" vertex="1" parent="1">
          <mxGeometry x="940" y="110" width="80" height="10" as="geometry" />
        </mxCell>
        <mxCell id="_grJbtcx7UaRWojQZP2D-32" style="edgeStyle=orthogonalEdgeStyle;rounded=0;orthogonalLoop=1;jettySize=auto;html=1;exitX=0.5;exitY=0;exitDx=0;exitDy=0;entryX=0.25;entryY=0;entryDx=0;entryDy=0;fillColor=#f8cecc;strokeColor=#b85450;" edge="1" parent="1" source="_grJbtcx7UaRWojQZP2D-33" target="_grJbtcx7UaRWojQZP2D-34">
          <mxGeometry relative="1" as="geometry" />
        </mxCell>
        <mxCell id="_grJbtcx7UaRWojQZP2D-33" value="Auto VOI" style="rounded=0;whiteSpace=wrap;html=1;fillColor=#f8cecc;strokeColor=#b85450;" vertex="1" parent="1">
          <mxGeometry x="940" y="120" width="80" height="10" as="geometry" />
        </mxCell>
        <mxCell id="_grJbtcx7UaRWojQZP2D-34" value="2D Ruler" style="rounded=0;whiteSpace=wrap;html=1;fillColor=#f8cecc;strokeColor=#b85450;" vertex="1" parent="1">
          <mxGeometry x="940" y="130" width="80" height="10" as="geometry" />
        </mxCell>
        <mxCell id="_grJbtcx7UaRWojQZP2D-35" value="0.0" style="rounded=0;whiteSpace=wrap;html=1;fillColor=#f8cecc;strokeColor=#b85450;" vertex="1" parent="1">
          <mxGeometry x="940" y="140" width="80" height="10" as="geometry" />
        </mxCell>
        <mxCell id="_grJbtcx7UaRWojQZP2D-36" value="4.3" style="rounded=0;whiteSpace=wrap;html=1;fillColor=#f8cecc;strokeColor=#b85450;" vertex="1" parent="1">
          <mxGeometry x="940" y="150" width="80" height="10" as="geometry" />
        </mxCell>
        <mxCell id="_grJbtcx7UaRWojQZP2D-37" value="Slower" style="rounded=0;whiteSpace=wrap;html=1;" vertex="1" parent="1">
          <mxGeometry x="940" y="410" width="80" height="10" as="geometry" />
        </mxCell>
        <mxCell id="_grJbtcx7UaRWojQZP2D-38" value="Faster" style="rounded=0;whiteSpace=wrap;html=1;" vertex="1" parent="1">
          <mxGeometry x="940" y="400" width="80" height="10" as="geometry" />
        </mxCell>
        <mxCell id="_grJbtcx7UaRWojQZP2D-39" value="Start" style="rounded=0;whiteSpace=wrap;html=1;" vertex="1" parent="1">
          <mxGeometry x="940" y="390" width="80" height="10" as="geometry" />
        </mxCell>
        <mxCell id="_grJbtcx7UaRWojQZP2D-40" value="Rotation" style="rounded=0;whiteSpace=wrap;html=1;" vertex="1" parent="1">
          <mxGeometry x="620" y="400" width="280" height="20" as="geometry" />
        </mxCell>
        <mxCell id="_grJbtcx7UaRWojQZP2D-41" value="" style="rounded=0;whiteSpace=wrap;html=1;" vertex="1" parent="1">
          <mxGeometry x="900" y="400" width="20" height="10" as="geometry" />
        </mxCell>
        <mxCell id="_grJbtcx7UaRWojQZP2D-42" value="" style="rounded=0;whiteSpace=wrap;html=1;" vertex="1" parent="1">
          <mxGeometry x="900" y="410" width="20" height="10" as="geometry" />
        </mxCell>
        <mxCell id="_grJbtcx7UaRWojQZP2D-43" value="" style="rounded=0;whiteSpace=wrap;html=1;" vertex="1" parent="1">
          <mxGeometry x="920" y="400" width="20" height="10" as="geometry" />
        </mxCell>
        <mxCell id="_grJbtcx7UaRWojQZP2D-44" value="" style="rounded=0;whiteSpace=wrap;html=1;" vertex="1" parent="1">
          <mxGeometry x="920" y="410" width="20" height="10" as="geometry" />
        </mxCell>
        <mxCell id="_grJbtcx7UaRWojQZP2D-45" value="&lt;font style=&quot;font-size: 25px;&quot;&gt;Original&lt;/font&gt;" style="shape=process;whiteSpace=wrap;html=1;backgroundOutline=1;" vertex="1" parent="1">
          <mxGeometry x="260" y="40" width="120" height="30" as="geometry" />
        </mxCell>
        <mxCell id="_grJbtcx7UaRWojQZP2D-46" value="&lt;font style=&quot;font-size: 25px;&quot;&gt;Minimal change&lt;/font&gt;" style="shape=process;whiteSpace=wrap;html=1;backgroundOutline=1;" vertex="1" parent="1">
          <mxGeometry x="670" y="40" width="310" height="30" as="geometry" />
        </mxCell>
        <mxCell id="_grJbtcx7UaRWojQZP2D-47" value="&lt;font style=&quot;font-size: 25px;&quot;&gt;New UI for MIP&lt;/font&gt;" style="shape=process;whiteSpace=wrap;html=1;backgroundOutline=1;" vertex="1" parent="1">
          <mxGeometry x="425" y="-20" width="310" height="30" as="geometry" />
        </mxCell>
        <mxCell id="_grJbtcx7UaRWojQZP2D-48" value="Show Seg" style="rounded=0;whiteSpace=wrap;html=1;fillColor=#dae8fc;strokeColor=#6c8ebf;" vertex="1" parent="1">
          <mxGeometry x="940" y="160" width="80" height="10" as="geometry" />
        </mxCell>
        <mxCell id="_grJbtcx7UaRWojQZP2D-49" value="Changed" style="rounded=0;whiteSpace=wrap;html=1;fillColor=#dae8fc;strokeColor=#6c8ebf;" vertex="1" parent="1">
          <mxGeometry x="765" y="-35" width="120" height="60" as="geometry" />
        </mxCell>
        <mxCell id="_grJbtcx7UaRWojQZP2D-50" value="Useless" style="rounded=0;whiteSpace=wrap;html=1;fillColor=#f8cecc;strokeColor=#b85450;" vertex="1" parent="1">
          <mxGeometry x="900" y="-35" width="120" height="60" as="geometry" />
        </mxCell>
        <mxCell id="_grJbtcx7UaRWojQZP2D-52" value="Zoom" style="rounded=0;whiteSpace=wrap;html=1;" vertex="1" parent="1">
          <mxGeometry x="1330" y="390" width="70" height="10" as="geometry" />
        </mxCell>
        <mxCell id="_grJbtcx7UaRWojQZP2D-54" value="Unzoom" style="rounded=0;whiteSpace=wrap;html=1;" vertex="1" parent="1">
          <mxGeometry x="1330" y="400" width="70" height="10" as="geometry" />
        </mxCell>
        <mxCell id="_grJbtcx7UaRWojQZP2D-56" value="Track" style="rounded=0;whiteSpace=wrap;html=1;" vertex="1" parent="1">
          <mxGeometry x="1330" y="410" width="70" height="10" as="geometry" />
        </mxCell>
        <mxCell id="_grJbtcx7UaRWojQZP2D-62" value="Slower" style="rounded=0;whiteSpace=wrap;html=1;" vertex="1" parent="1">
          <mxGeometry x="1070" y="100" width="70" height="10" as="geometry" />
        </mxCell>
        <mxCell id="_grJbtcx7UaRWojQZP2D-63" value="Faster" style="rounded=0;whiteSpace=wrap;html=1;" vertex="1" parent="1">
          <mxGeometry x="1070" y="90" width="70" height="10" as="geometry" />
        </mxCell>
        <mxCell id="_grJbtcx7UaRWojQZP2D-64" value="Start" style="rounded=0;whiteSpace=wrap;html=1;" vertex="1" parent="1">
          <mxGeometry x="1070" y="80" width="70" height="10" as="geometry" />
        </mxCell>
        <mxCell id="_grJbtcx7UaRWojQZP2D-65" value="Rotation" style="rounded=0;whiteSpace=wrap;html=1;" vertex="1" parent="1">
          <mxGeometry x="1450" y="220" width="30" height="170" as="geometry" />
        </mxCell>
        <mxCell id="_grJbtcx7UaRWojQZP2D-66" value="" style="rounded=0;whiteSpace=wrap;html=1;" vertex="1" parent="1">
          <mxGeometry x="1080" y="400" width="20" height="10" as="geometry" />
        </mxCell>
        <mxCell id="_grJbtcx7UaRWojQZP2D-67" value="" style="rounded=0;whiteSpace=wrap;html=1;" vertex="1" parent="1">
          <mxGeometry x="1080" y="410" width="20" height="10" as="geometry" />
        </mxCell>
        <mxCell id="_grJbtcx7UaRWojQZP2D-68" value="" style="rounded=0;whiteSpace=wrap;html=1;" vertex="1" parent="1">
          <mxGeometry x="1100" y="400" width="20" height="10" as="geometry" />
        </mxCell>
        <mxCell id="_grJbtcx7UaRWojQZP2D-69" value="" style="rounded=0;whiteSpace=wrap;html=1;" vertex="1" parent="1">
          <mxGeometry x="1100" y="410" width="20" height="10" as="geometry" />
        </mxCell>
        <mxCell id="_grJbtcx7UaRWojQZP2D-70" value="&lt;span style=&quot;font-size: 25px;&quot;&gt;At the bottom&lt;/span&gt;" style="shape=process;whiteSpace=wrap;html=1;backgroundOutline=1;" vertex="1" parent="1">
          <mxGeometry x="1125" y="40" width="310" height="30" as="geometry" />
        </mxCell>
        <mxCell id="_grJbtcx7UaRWojQZP2D-71" value="MIP" style="rounded=0;whiteSpace=wrap;html=1;fillColor=#dae8fc;strokeColor=#6c8ebf;" vertex="1" parent="1">
          <mxGeometry x="1080" y="390" width="40" height="10" as="geometry" />
        </mxCell>
        <mxCell id="_grJbtcx7UaRWojQZP2D-72" value="New surface" style="rounded=0;whiteSpace=wrap;html=1;fillColor=#dae8fc;strokeColor=#6c8ebf;" vertex="1" parent="1">
          <mxGeometry x="1140" y="80" width="310" height="310" as="geometry" />
        </mxCell>
        <mxCell id="_grJbtcx7UaRWojQZP2D-76" value="Zoom" style="rounded=0;whiteSpace=wrap;html=1;" vertex="1" parent="1">
          <mxGeometry x="1870" y="280" width="60" height="50" as="geometry" />
        </mxCell>
        <mxCell id="_grJbtcx7UaRWojQZP2D-77" value="Unzoom" style="rounded=0;whiteSpace=wrap;html=1;" vertex="1" parent="1">
          <mxGeometry x="1870" y="330" width="60" height="50" as="geometry" />
        </mxCell>
        <mxCell id="_grJbtcx7UaRWojQZP2D-78" value="Track" style="rounded=0;whiteSpace=wrap;html=1;" vertex="1" parent="1">
          <mxGeometry x="1870" y="380" width="60" height="40" as="geometry" />
        </mxCell>
        <mxCell id="_grJbtcx7UaRWojQZP2D-79" value="Slower" style="rounded=0;whiteSpace=wrap;html=1;" vertex="1" parent="1">
          <mxGeometry x="1870" y="230" width="60" height="50" as="geometry" />
        </mxCell>
        <mxCell id="_grJbtcx7UaRWojQZP2D-80" value="Faster" style="rounded=0;whiteSpace=wrap;html=1;" vertex="1" parent="1">
          <mxGeometry x="1870" y="180" width="60" height="50" as="geometry" />
        </mxCell>
        <mxCell id="_grJbtcx7UaRWojQZP2D-81" value="Start" style="rounded=0;whiteSpace=wrap;html=1;" vertex="1" parent="1">
          <mxGeometry x="1870" y="130" width="60" height="50" as="geometry" />
        </mxCell>
        <mxCell id="_grJbtcx7UaRWojQZP2D-82" value="Rotation" style="rounded=0;whiteSpace=wrap;html=1;" vertex="1" parent="1">
          <mxGeometry x="1530" y="400" width="300" height="20" as="geometry" />
        </mxCell>
        <mxCell id="_grJbtcx7UaRWojQZP2D-83" value="" style="rounded=0;whiteSpace=wrap;html=1;" vertex="1" parent="1">
          <mxGeometry x="1830" y="400" width="20" height="10" as="geometry" />
        </mxCell>
        <mxCell id="_grJbtcx7UaRWojQZP2D-84" value="" style="rounded=0;whiteSpace=wrap;html=1;" vertex="1" parent="1">
          <mxGeometry x="1830" y="410" width="20" height="10" as="geometry" />
        </mxCell>
        <mxCell id="_grJbtcx7UaRWojQZP2D-85" value="" style="rounded=0;whiteSpace=wrap;html=1;" vertex="1" parent="1">
          <mxGeometry x="1850" y="400" width="20" height="10" as="geometry" />
        </mxCell>
        <mxCell id="_grJbtcx7UaRWojQZP2D-86" value="" style="rounded=0;whiteSpace=wrap;html=1;" vertex="1" parent="1">
          <mxGeometry x="1850" y="410" width="20" height="10" as="geometry" />
        </mxCell>
        <mxCell id="_grJbtcx7UaRWojQZP2D-87" value="&lt;span style=&quot;font-size: 25px;&quot;&gt;On the side&lt;/span&gt;" style="shape=process;whiteSpace=wrap;html=1;backgroundOutline=1;" vertex="1" parent="1">
          <mxGeometry x="1575" y="40" width="310" height="30" as="geometry" />
        </mxCell>
        <mxCell id="_grJbtcx7UaRWojQZP2D-88" value="MIP" style="rounded=0;whiteSpace=wrap;html=1;fillColor=#dae8fc;strokeColor=#6c8ebf;" vertex="1" parent="1">
          <mxGeometry x="1870" y="80" width="60" height="50" as="geometry" />
        </mxCell>
        <mxCell id="_grJbtcx7UaRWojQZP2D-89" value="New surface" style="rounded=0;whiteSpace=wrap;html=1;fillColor=#dae8fc;strokeColor=#6c8ebf;" vertex="1" parent="1">
          <mxGeometry x="1530" y="80" width="340" height="320" as="geometry" />
        </mxCell>
        <mxCell id="_grJbtcx7UaRWojQZP2D-93" value="Zoom" style="rounded=0;whiteSpace=wrap;html=1;" vertex="1" parent="1">
          <mxGeometry x="2200" y="80" width="50" height="10" as="geometry" />
        </mxCell>
        <mxCell id="_grJbtcx7UaRWojQZP2D-94" value="Unzoom" style="rounded=0;whiteSpace=wrap;html=1;" vertex="1" parent="1">
          <mxGeometry x="2250" y="80" width="50" height="10" as="geometry" />
        </mxCell>
        <mxCell id="_grJbtcx7UaRWojQZP2D-95" value="Track" style="rounded=0;whiteSpace=wrap;html=1;" vertex="1" parent="1">
          <mxGeometry x="2300" y="80" width="50" height="10" as="geometry" />
        </mxCell>
        <mxCell id="_grJbtcx7UaRWojQZP2D-96" value="Slower" style="rounded=0;whiteSpace=wrap;html=1;" vertex="1" parent="1">
          <mxGeometry x="2150" y="80" width="50" height="10" as="geometry" />
        </mxCell>
        <mxCell id="_grJbtcx7UaRWojQZP2D-97" value="Faster" style="rounded=0;whiteSpace=wrap;html=1;" vertex="1" parent="1">
          <mxGeometry x="2100" y="80" width="50" height="10" as="geometry" />
        </mxCell>
        <mxCell id="_grJbtcx7UaRWojQZP2D-98" value="Start" style="rounded=0;whiteSpace=wrap;html=1;" vertex="1" parent="1">
          <mxGeometry x="2050" y="80" width="50" height="10" as="geometry" />
        </mxCell>
        <mxCell id="_grJbtcx7UaRWojQZP2D-99" value="Rotation" style="rounded=0;whiteSpace=wrap;html=1;" vertex="1" parent="1">
          <mxGeometry x="1990" y="400" width="320" height="20" as="geometry" />
        </mxCell>
        <mxCell id="_grJbtcx7UaRWojQZP2D-100" value="" style="rounded=0;whiteSpace=wrap;html=1;" vertex="1" parent="1">
          <mxGeometry x="2310" y="400" width="20" height="20" as="geometry" />
        </mxCell>
        <mxCell id="_grJbtcx7UaRWojQZP2D-101" value="" style="rounded=0;whiteSpace=wrap;html=1;" vertex="1" parent="1">
          <mxGeometry x="2310" y="410" width="20" height="10" as="geometry" />
        </mxCell>
        <mxCell id="_grJbtcx7UaRWojQZP2D-102" value="" style="rounded=0;whiteSpace=wrap;html=1;" vertex="1" parent="1">
          <mxGeometry x="2330" y="400" width="20" height="10" as="geometry" />
        </mxCell>
        <mxCell id="_grJbtcx7UaRWojQZP2D-103" value="" style="rounded=0;whiteSpace=wrap;html=1;" vertex="1" parent="1">
          <mxGeometry x="2330" y="410" width="20" height="10" as="geometry" />
        </mxCell>
        <mxCell id="_grJbtcx7UaRWojQZP2D-104" value="&lt;span style=&quot;font-size: 25px;&quot;&gt;Top-Bottom&lt;/span&gt;" style="shape=process;whiteSpace=wrap;html=1;backgroundOutline=1;" vertex="1" parent="1">
          <mxGeometry x="2015" y="40" width="310" height="30" as="geometry" />
        </mxCell>
        <mxCell id="_grJbtcx7UaRWojQZP2D-105" value="MIP" style="rounded=0;whiteSpace=wrap;html=1;fillColor=#dae8fc;strokeColor=#6c8ebf;" vertex="1" parent="1">
          <mxGeometry x="1990" y="80" width="60" height="10" as="geometry" />
        </mxCell>
        <mxCell id="_grJbtcx7UaRWojQZP2D-106" value="New surface" style="rounded=0;whiteSpace=wrap;html=1;fillColor=#dae8fc;strokeColor=#6c8ebf;" vertex="1" parent="1">
          <mxGeometry x="1990" y="90" width="360" height="310" as="geometry" />
        </mxCell>
        <mxCell id="_grJbtcx7UaRWojQZP2D-111" value="Colorbar" style="rounded=0;whiteSpace=wrap;html=1;fillColor=#f8cecc;strokeColor=#b85450;" vertex="1" parent="1">
          <mxGeometry x="1450" y="80" width="30" height="140" as="geometry" />
        </mxCell>
        <mxCell id="_grJbtcx7UaRWojQZP2D-114" value="New surface" style="whiteSpace=wrap;html=1;aspect=fixed;fillColor=#dae8fc;strokeColor=#6c8ebf;" vertex="1" parent="1">
          <mxGeometry x="660" y="470" width="320" height="320" as="geometry" />
        </mxCell>
        <mxCell id="_grJbtcx7UaRWojQZP2D-115" value="1 C" style="rounded=0;whiteSpace=wrap;html=1;" vertex="1" parent="1">
          <mxGeometry x="980" y="800" width="30" height="10" as="geometry" />
        </mxCell>
        <mxCell id="_grJbtcx7UaRWojQZP2D-116" value="Colorbar" style="rounded=0;whiteSpace=wrap;html=1;fillColor=#f8cecc;strokeColor=#b85450;" vertex="1" parent="1">
          <mxGeometry x="980" y="640" width="30" height="150" as="geometry" />
        </mxCell>
        <mxCell id="_grJbtcx7UaRWojQZP2D-118" value="VOIs" style="rounded=0;whiteSpace=wrap;html=1;fillColor=#f8cecc;strokeColor=#b85450;" vertex="1" parent="1">
          <mxGeometry x="750" y="790" width="80" height="10" as="geometry" />
        </mxCell>
        <mxCell id="_grJbtcx7UaRWojQZP2D-119" value="Track" style="rounded=0;whiteSpace=wrap;html=1;" vertex="1" parent="1">
          <mxGeometry x="660" y="790" width="90" height="10" as="geometry" />
        </mxCell>
        <mxCell id="_grJbtcx7UaRWojQZP2D-121" value="Auto VOI" style="rounded=0;whiteSpace=wrap;html=1;fillColor=#f8cecc;strokeColor=#b85450;" vertex="1" parent="1">
          <mxGeometry x="750" y="800" width="80" height="10" as="geometry" />
        </mxCell>
        <mxCell id="_grJbtcx7UaRWojQZP2D-122" value="2D Ruler" style="rounded=0;whiteSpace=wrap;html=1;" vertex="1" parent="1">
          <mxGeometry x="660" y="800" width="90" height="10" as="geometry" />
        </mxCell>
        <mxCell id="_grJbtcx7UaRWojQZP2D-123" value="0.0" style="rounded=0;whiteSpace=wrap;html=1;fillColor=#f8cecc;strokeColor=#b85450;" vertex="1" parent="1">
          <mxGeometry x="980" y="790" width="30" height="10" as="geometry" />
        </mxCell>
        <mxCell id="_grJbtcx7UaRWojQZP2D-124" value="4.3" style="rounded=0;whiteSpace=wrap;html=1;fillColor=#f8cecc;strokeColor=#b85450;" vertex="1" parent="1">
          <mxGeometry x="980" y="630" width="30" height="10" as="geometry" />
        </mxCell>
        <mxCell id="_grJbtcx7UaRWojQZP2D-125" value="Slower" style="rounded=0;whiteSpace=wrap;html=1;" vertex="1" parent="1">
          <mxGeometry x="900" y="800" width="80" height="10" as="geometry" />
        </mxCell>
        <mxCell id="_grJbtcx7UaRWojQZP2D-126" value="Faster" style="rounded=0;whiteSpace=wrap;html=1;" vertex="1" parent="1">
          <mxGeometry x="900" y="790" width="80" height="10" as="geometry" />
        </mxCell>
        <mxCell id="_grJbtcx7UaRWojQZP2D-127" value="Start" style="rounded=0;whiteSpace=wrap;html=1;" vertex="1" parent="1">
          <mxGeometry x="830" y="790" width="70" height="20" as="geometry" />
        </mxCell>
        <mxCell id="_grJbtcx7UaRWojQZP2D-128" value="Rotation" style="rounded=0;whiteSpace=wrap;html=1;" vertex="1" parent="1">
          <mxGeometry x="980" y="490" width="30" height="120" as="geometry" />
        </mxCell>
        <mxCell id="_grJbtcx7UaRWojQZP2D-129" value="" style="rounded=0;whiteSpace=wrap;html=1;" vertex="1" parent="1">
          <mxGeometry x="980" y="610" width="20" height="10" as="geometry" />
        </mxCell>
        <mxCell id="_grJbtcx7UaRWojQZP2D-130" value="" style="rounded=0;whiteSpace=wrap;html=1;" vertex="1" parent="1">
          <mxGeometry x="980" y="620" width="20" height="10" as="geometry" />
        </mxCell>
        <mxCell id="_grJbtcx7UaRWojQZP2D-131" value="" style="rounded=0;whiteSpace=wrap;html=1;" vertex="1" parent="1">
          <mxGeometry x="1000" y="610" width="10" height="10" as="geometry" />
        </mxCell>
        <mxCell id="_grJbtcx7UaRWojQZP2D-132" value="" style="rounded=0;whiteSpace=wrap;html=1;" vertex="1" parent="1">
          <mxGeometry x="1000" y="620" width="10" height="10" as="geometry" />
        </mxCell>
        <mxCell id="_grJbtcx7UaRWojQZP2D-133" value="&lt;font style=&quot;font-size: 25px;&quot;&gt;maximum change&lt;/font&gt;" style="shape=process;whiteSpace=wrap;html=1;backgroundOutline=1;" vertex="1" parent="1">
          <mxGeometry x="670" y="430" width="310" height="30" as="geometry" />
        </mxCell>
        <mxCell id="_grJbtcx7UaRWojQZP2D-134" value="SUR" style="rounded=0;whiteSpace=wrap;html=1;fillColor=#dae8fc;strokeColor=#6c8ebf;" vertex="1" parent="1">
          <mxGeometry x="980" y="470" width="30" height="20" as="geometry" />
        </mxCell>
        <mxCell id="_grJbtcx7UaRWojQZP2D-148" value="MIP" style="rounded=0;whiteSpace=wrap;html=1;fillColor=#dae8fc;strokeColor=#6c8ebf;" vertex="1" parent="1">
          <mxGeometry x="1010" y="470" width="30" height="20" as="geometry" />
        </mxCell>
      </root>
    </mxGraphModel>
  </diagram>
</mxfile>
